<?xml version="1.0" encoding="utf-8"?>
<!-- Generator: Adobe Illustrator 16.0.0, SVG Export Plug-In . SVG Version: 6.00 Build 0)  -->
<!DOCTYPE svg PUBLIC "-//W3C//DTD SVG 1.1//EN" "http://www.w3.org/Graphics/SVG/1.1/DTD/svg11.dtd">
<svg version="1.1"
	 id="svg2" xmlns:dc="http://purl.org/dc/elements/1.1/" xmlns:cc="http://creativecommons.org/ns#" xmlns:rdf="http://www.w3.org/1999/02/22-rdf-syntax-ns#" xmlns:svg="http://www.w3.org/2000/svg" xmlns:sodipodi="http://sodipodi.sourceforge.net/DTD/sodipodi-0.dtd" xmlns:inkscape="http://www.inkscape.org/namespaces/inkscape" sodipodi:docname="Jeopardy!.svg" inkscape:version="0.91 r13725"
	 xmlns="http://www.w3.org/2000/svg" xmlns:xlink="http://www.w3.org/1999/xlink" x="0px" y="0px" width="1000px"
	 height="282.564px" viewBox="0 0 1000 282.564" enable-background="new 0 0 1000 282.564" xml:space="preserve">
<sodipodi:namedview  showguides="false" inkscape:cy="-198.61255" inkscape:cx="907.25566" inkscape:zoom="0.35355339" showgrid="false" id="namedview28" guidetolerance="10" gridtolerance="10" objecttolerance="10" borderopacity="1" bordercolor="#666666" pagecolor="#ffffff" inkscape:current-layer="svg2" inkscape:window-maximized="1" inkscape:window-y="-8" inkscape:window-x="-8" inkscape:window-height="705" inkscape:window-width="1366" inkscape:pageopacity="0" inkscape:pageshadow="2" units="px">
	</sodipodi:namedview>
<g id="rect4359" inkscape:connector-curvature="0">
	
		<image overflow="visible" opacity="0.75" width="1035" height="317" xlink:href="C991EF77A852CAFB.png"  transform="matrix(1 0 0 1 -17.5 -17.2175)">
	</image>
	<g>
		<linearGradient id="SVGID_1_" gradientUnits="userSpaceOnUse" x1="0" y1="141.2825" x2="1000" y2="141.2825">
			<stop  offset="0" style="stop-color:#FFFFFF"/>
			<stop  offset="9.728654e-04" style="stop-color:#FEFEFD"/>
			<stop  offset="0.0013" style="stop-color:#FCFCF6"/>
			<stop  offset="0.0016" style="stop-color:#F8F8EB"/>
			<stop  offset="0.0018" style="stop-color:#F2F2DA"/>
			<stop  offset="0.0019" style="stop-color:#EBEAC4"/>
			<stop  offset="0.0021" style="stop-color:#E2E1A8"/>
			<stop  offset="0.0022" style="stop-color:#D7D588"/>
			<stop  offset="0.0024" style="stop-color:#CAC862"/>
			<stop  offset="0.0025" style="stop-color:#BCB937"/>
			<stop  offset="0.0026" style="stop-color:#ACA909"/>
			<stop  offset="0.0026" style="stop-color:#A9A600"/>
			<stop  offset="0.0791" style="stop-color:#A8A403"/>
			<stop  offset="0.132" style="stop-color:#A39F0C"/>
			<stop  offset="0.1778" style="stop-color:#9C961B"/>
			<stop  offset="0.2196" style="stop-color:#918A31"/>
			<stop  offset="0.2587" style="stop-color:#837A4D"/>
			<stop  offset="0.2957" style="stop-color:#736670"/>
			<stop  offset="0.3312" style="stop-color:#5F4F99"/>
			<stop  offset="0.3647" style="stop-color:#4834C8"/>
			<stop  offset="0.3968" style="stop-color:#2E16FC"/>
			<stop  offset="0.3983" style="stop-color:#2D15FF"/>
			<stop  offset="0.4329" style="stop-color:#311AFA"/>
			<stop  offset="0.474" style="stop-color:#3C28EC"/>
			<stop  offset="0.5182" style="stop-color:#4F40D4"/>
			<stop  offset="0.5648" style="stop-color:#6962B2"/>
			<stop  offset="0.6132" style="stop-color:#8A8D87"/>
			<stop  offset="0.6632" style="stop-color:#B3C153"/>
			<stop  offset="0.7135" style="stop-color:#E2FE16"/>
			<stop  offset="0.7142" style="stop-color:#E3FF15"/>
			<stop  offset="0.7512" style="stop-color:#D4EB34"/>
			<stop  offset="0.8323" style="stop-color:#ADB983"/>
			<stop  offset="0.9494" style="stop-color:#716AFF"/>
		</linearGradient>
		<path fill="url(#SVGID_1_)" d="M68.452,0v242.552c0,4.112-3.402,7.424-7.628,7.424H43.783c-4.226,0-7.628-3.312-7.628-7.424
			v-75.048H0v94.623c0,11.322,9.136,20.438,20.485,20.438h65.018c11.349,0,20.485-9.115,20.485-20.438V0H68.452z M160.225,0
			c-20.672,0-37.315,9.676-37.315,21.694v237.287c0,12.019,9.401,23.583,30.073,23.583h70.283v-32.589h-53.264
			c-5.35,0-9.658-4.324-9.658-9.696v-30.183c0-5.371,4.308-9.696,9.658-9.696h53.264v-32.224h-52.641
			c-5.696,0-10.281-4.603-10.281-10.32v-32.132c0-5.718,4.585-10.32,10.281-10.32h52.641V0H160.225L160.225,0z M262.101,0
			c-10.877,0-19.633,9.116-19.633,20.438v241.688c0,11.322,8.756,20.438,19.633,20.438h62.312c10.876,0,19.634-9.115,19.634-20.438
			V20.439C344.047,9.116,335.289,0,324.413,0H262.101L262.101,0z M362.805,0v282.564h36.332v-81.423h40.076
			c13.944,0,25.172-8.693,25.172-19.493v-46.727v-1.556V25.464C464.385,11.358,449.729,0,431.526,0H362.805z M515.995,0
			c-12.019,0-22.421,8.228-23.324,18.448l-23.322,264.116h36.317l7.608-82.369h32.674l7.609,82.369h39.945l-27.31-264.116
			C565.137,8.228,554.611,0,542.593,0h-0.811h-24.979H515.995z M605.201,0v282.564l34.513-0.002v-82.758h19.822
			c8.653,0.661,15.962,7.442,16.596,15.786l5.088,66.974h38.231l-7.976-69.918c-1.676-14.691-6.515-21.013-13.546-28.044
			c6.644-6.643,10.636-9.059,10.636-16.804v-5.071V25.463C708.565,11.357,694.867,0,677.851,0H605.201L605.201,0z M732.672,0
			v282.564h70.434c16.498,0,29.779-11.356,29.779-25.463V25.464C832.885,11.358,819.604,0,803.105,0H732.672L732.672,0z M845.975,0
			v167.77c0,16.71,13.171,30.161,29.531,30.161h38.904v45.699c0,2.775-2.9,5.01-6.504,5.01c-2.349,0.001-4.734,0-7.127,0
			c-8.373,0.001-16.818,0-23.983,0v33.925h37.611h5.121c16.142,0,29.138-9.391,29.138-21.056V0H914.41v119.025
			c0.001,0.019,0,0.036,0,0.055v47.088h-25.973c-3.69,0-6.661-3.521-6.661-7.895V0H845.975L845.975,0z M966.545,0v197.916H1000V0
			H966.545z M639.714,114.071h22.583c5.29,0,9.55,5.094,9.55,11.422v29.927c0,6.328-4.26,11.422-9.55,11.422h-22.583V114.071z
			 M765.296,114.071h24.575c5.756,0,10.392,5.407,10.392,12.126v110.317c0,6.718-4.636,12.126-10.392,12.126h-24.575V114.071z
			 M528.116,114.957h2.99c3.859,0,7.163,2.111,7.405,4.735l4.406,47.693h-26.613l4.406-47.693
			C520.953,117.069,524.257,114.957,528.116,114.957L528.116,114.957z M290.916,115.406h4.681c6.045,0,10.913,4.34,10.913,9.732
			v115.104c0,5.393-4.867,9.732-10.913,9.732h-4.681c-6.045,0-10.912-4.34-10.912-9.732V125.139
			C280.004,119.746,284.871,115.406,290.916,115.406z M399.137,115.984h21.465c4.233,0,7.642,4.355,7.642,9.764v32.668
			c0,5.408-3.408,9.762-7.642,9.762h-21.465V115.984z M966.545,209.707v31.75H1000v-31.75H966.545z"/>
		<path fill="none" stroke="#FAFAFA" stroke-width="4" stroke-miterlimit="10" d="M68.452,0v242.552
			c0,4.112-3.402,7.424-7.628,7.424H43.783c-4.226,0-7.628-3.312-7.628-7.424v-75.048H0v94.623c0,11.322,9.136,20.438,20.485,20.438
			h65.018c11.349,0,20.485-9.115,20.485-20.438V0H68.452z M160.225,0c-20.672,0-37.315,9.676-37.315,21.694v237.287
			c0,12.019,9.401,23.583,30.073,23.583h70.283v-32.589h-53.264c-5.35,0-9.658-4.324-9.658-9.696v-30.183
			c0-5.371,4.308-9.696,9.658-9.696h53.264v-32.224h-52.641c-5.696,0-10.281-4.603-10.281-10.32v-32.132
			c0-5.718,4.585-10.32,10.281-10.32h52.641V0H160.225L160.225,0z M262.101,0c-10.877,0-19.633,9.116-19.633,20.438v241.688
			c0,11.322,8.756,20.438,19.633,20.438h62.312c10.876,0,19.634-9.115,19.634-20.438V20.439C344.047,9.116,335.289,0,324.413,0
			H262.101L262.101,0z M362.805,0v282.564h36.332v-81.423h40.076c13.944,0,25.172-8.693,25.172-19.493v-46.727v-1.556V25.464
			C464.385,11.358,449.729,0,431.526,0H362.805z M515.995,0c-12.019,0-22.421,8.228-23.324,18.448l-23.322,264.116h36.317
			l7.608-82.369h32.674l7.609,82.369h39.945l-27.31-264.116C565.137,8.228,554.611,0,542.593,0h-0.811h-24.979H515.995z M605.201,0
			v282.564l34.513-0.002v-82.758h19.822c8.653,0.661,15.962,7.442,16.596,15.786l5.088,66.974h38.231l-7.976-69.918
			c-1.676-14.691-6.515-21.013-13.546-28.044c6.644-6.643,10.636-9.059,10.636-16.804v-5.071V25.463
			C708.565,11.357,694.867,0,677.851,0H605.201L605.201,0z M732.672,0v282.564h70.434c16.498,0,29.779-11.356,29.779-25.463V25.464
			C832.885,11.358,819.604,0,803.105,0H732.672L732.672,0z M845.975,0v167.77c0,16.71,13.171,30.161,29.531,30.161h38.904v45.699
			c0,2.775-2.9,5.01-6.504,5.01c-2.349,0.001-4.734,0-7.127,0c-8.373,0.001-16.818,0-23.983,0v33.925h37.611h5.121
			c16.142,0,29.138-9.391,29.138-21.056V0H914.41v119.025c0.001,0.019,0,0.036,0,0.055v47.088h-25.973
			c-3.69,0-6.661-3.521-6.661-7.895V0H845.975L845.975,0z M966.545,0v197.916H1000V0H966.545z M639.714,114.071h22.583
			c5.29,0,9.55,5.094,9.55,11.422v29.927c0,6.328-4.26,11.422-9.55,11.422h-22.583V114.071z M765.296,114.071h24.575
			c5.756,0,10.392,5.407,10.392,12.126v110.317c0,6.718-4.636,12.126-10.392,12.126h-24.575V114.071z M528.116,114.957h2.99
			c3.859,0,7.163,2.111,7.405,4.735l4.406,47.693h-26.613l4.406-47.693C520.953,117.069,524.257,114.957,528.116,114.957
			L528.116,114.957z M290.916,115.406h4.681c6.045,0,10.913,4.34,10.913,9.732v115.104c0,5.393-4.867,9.732-10.913,9.732h-4.681
			c-6.045,0-10.912-4.34-10.912-9.732V125.139C280.004,119.746,284.871,115.406,290.916,115.406z M399.137,115.984h21.465
			c4.233,0,7.642,4.355,7.642,9.764v32.668c0,5.408-3.408,9.762-7.642,9.762h-21.465V115.984z M966.545,209.707v31.75H1000v-31.75
			H966.545z"/>
	</g>
</g>
</svg>
